<svg xmlns="http://www.w3.org/2000/svg" width="146" height="40" viewBox="0 0 146 40" fill="none" role="img" aria-label="BAYAR GG">
  <title>BAYAR GG</title>
  <!-- Lightning mark -->
  <path d="M22.5 3.5 8.5 22.2h9.2L13.8 36.5 29.5 16.4h-9.1z" fill="#1a86ff"/>
  <!-- Wordmark: BAYAR -->
  <g fill="#0a0e17">
    <path d="M40.2 11.5h7.6c3 0 4.9 1.5 4.9 3.9 0 1.5-.8 2.6-2 3.1 1.6.5 2.6 1.7 2.6 3.5 0 2.6-2 4.2-5.2 4.2h-7.9V11.5Zm7.1 5.9c1.1 0 1.8-.5 1.8-1.4 0-.9-.7-1.4-1.8-1.4h-3.3v2.8h3.3Zm.3 5.8c1.2 0 1.9-.5 1.9-1.5s-.7-1.5-1.9-1.5h-3.6v3h3.6Z"/>
    <path d="m62.3 11.5-5.5 18.2h-4l1.1-3.6h-.1l-2.7-14.6h4l1.4 9.8h.1l2.8-9.8h2.8Z"/>
    <path d="M67.4 11.5h4.1l4.9 18.2h-4l-.9-3.6h-4.4l-.9 3.6h-3.9l5-18.2Zm3.4 11.4-1.4-5.9h-.1l-1.4 5.9h2.9Z"/>
    <path d="M84.3 26.2h-2.6v3.5h-3.8V11.5h7.4c3.4 0 5.5 1.9 5.5 5.1 0 2.1-1 3.7-2.6 4.5l3 8.6h-4.1l-2.2-3.5Zm-2.6-3.2h2.9c1.4 0 2.3-.8 2.3-2.2s-.9-2.2-2.3-2.2h-2.9V23Z"/>
  </g>
  <!-- GG -->
  <g fill="#1a86ff">
    <path d="M104.4 20.1h7v8.1c-1.6 1.1-3.9 1.8-6.2 1.8-5.3 0-8.9-3.9-8.9-9.4s3.6-9.4 8.8-9.4c3 0 5.5 1.3 6.9 3.6l-3 2.3c-.8-1.4-2.2-2.2-3.9-2.2-2.8 0-4.7 2.3-4.7 5.7s1.9 5.7 4.8 5.7c.9 0 1.8-.2 2.5-.6v-2.2h-3.3v-3.2Z"/>
    <path d="M122.6 20.1h7v8.1c-1.6 1.1-3.9 1.8-6.2 1.8-5.3 0-8.9-3.9-8.9-9.4s3.6-9.4 8.8-9.4c3 0 5.5 1.3 6.9 3.6l-3 2.3c-.8-1.4-2.2-2.2-3.9-2.2-2.8 0-4.7 2.3-4.7 5.7s1.9 5.7 4.8 5.7c.9 0 1.8-.2 2.5-.6v-2.2h-3.3v-3.2Z"/>
  </g>
</svg>
